<svg xmlns="http://www.w3.org/2000/svg" viewBox="285 410 1210 1210">
  <circle cx="890.237" cy="1001.287" r="578.867" fill="#f6cb47"/>
  <path fill="#000" d="M1105.7289344,959.4461726c-5.7566293-16.3262562-8.4702132-33.1803295-11.7316201-50.5223587-11.5931556-61.6448224-49.4304195-107.5383211-109.1626646-127.2741763-60.6906325-20.0525115-122.4969043-8.7933395-183.3379691,7.3533294-2.7148201,46.644615-6.3409503,91.1583313-14.314975,136.7515497-9.2909632,53.1231006-20.9890022,104.5905302-36.9416276,155.5341477-5.7287978,18.2945238-20.4705655,30.7824812-35.747408,35.6674131-18.9610964,6.063011-38.5529504,2.4183428-53.1302993-10.5440633-22.0709715-19.6258522-41.8084073-40.70428-63.3631212-62.5364762-25.7295692,138.3819586-46.5797071,275.1408115-61.8329345,416.5572444l-42.0355119-34.537922c16.2064218-142.0311747,37.8016513-282.005609,65.0908737-421.4002108-33.9318061-35.1647249-66.2103937-70.4323258-97.8444334-106.9648833-12.9805565-14.9905902-16.7973632-33.7381006-11.2320443-53.6463771,4.5163777-16.1560009,18.1874337-29.8970282,35.914159-36.8644504l84.1259399-33.0653816,108.1167339-41.319063,89.5767757-33.755926c7.7679771-2.9272683,14.9250257-4.4265781,22.4853341.5966972,5.1411694,3.4159334,10.1529157,10.0638656,10.4951272,17.9937997l1.111535,25.7571721c29.2693341-7.1199612,57.7513775-13.4110982,88.2712165-15.295557l41.4803494-52.2598895c17.8496501-22.4882567,50.0331743-21.9811604,77.5700238-14.124642,38.6607279,11.0302641,77.2853259,20.3332182,114.5574743,34.4866716,33.2408679,12.6226444,48.0433576,46.8587242,39.0619163,79.8169653l-28.4299469,104.3263564,6.0853817,28.7704223,157.1012535-20.8322279c16.512303-2.1895946,33.0838503,2.3537535,44.5289897,13.3824446,10.8586532,10.4635451,13.5956001,25.0201599,12.5672879,40.3177395-6.6028696,98.2269051-17.5648093,194.7121092-29.8855581,292.481758-1.2758898,24.0730104-15.3438029,44.8047691-38.6615336,52.5857705-59.8084175,19.9577476-120.3272888,34.6256602-183.1319824,47.7998577l11.1411105,200.9938322-45.025048,17.0265194-13.7112972-255.770346c73.070773-13.2069776,143.8019651-30.4059484,214.1726591-52.5986182,4.7132375-1.4864046,7.3579767-6.1177636,8.9577424-10.624157l22.1910085-189.2393909c-16.053639,1.7101826-31.0132995,2.1121245-46.437883-1.2488304-44.874482-9.7779695-63.591009-51.4567039-51.3456349-96.4975846l-97.2993994,12.7228412ZM1106.7312632,821.9433088l15.1038312-59.3246843c3.211702-12.6148924-4.2821271-23.5323405-16.3991203-27.9864268-39.4335855-12.7820716-78.646839-24.4690798-118.7569644-34.6925265-11.2182601-2.8593599-20.8108476.6609594-27.1372161,9.0219978l-14.8092351,19.5721424c67.7505899,8.1785316,124.0212765,36.3348597,161.9987046,93.4094974ZM589.5207049,973.303458l98.2451847,99.2553597c3.5081347,3.544206,10.8618959,4.0508064,14.2790756,2.5094412,3.7933708-1.7110513,6.9917561-5.4787577,8.5271951-10.5468696,27.2465494-89.9342568,43.7132268-182.4625904,48.2522652-276.509103l.1859307-39.9470438-169.0811636,64.2052064-88.5023054,34.7997313c-4.9094276,1.9304216-9.6499506,5.776921-10.3691204,9.8574192-.8718534,4.9468101.5657099,10.5254737,3.913327,14.1931223l65.7022207,71.9833408,28.8473904,30.1993956ZM1267.2258503,999.3085831c12.7719376,1.5798087,25.3289265.4796865,37.5011608-1.1828915l4.5648395-59.3252831-2.1585338-4.5491005c-.3997524-.8424765-3.8626899-.6600062-4.7899759-.5355983l-51.2426864,6.8748975c-3.1193362,10.5434828-5.788262,22.601252-5.9008262,34.189093-.1279648,13.1732366,8.4231074,22.8462875,22.0260221,24.5288829Z"/>
  <path fill="#000" d="M1013.4630232,1027.4113435c-4.4964324,7.3073479-11.2299027,10.4657395-18.0535241,10.2610915-6.5727325-.1971236-13.5852211-3.3631722-17.4682039-9.8616013-7.9158201-13.2476495-8.8113701-30.1960703-2.2006765-44.087354,3.3843235-7.1115984,10.346334-11.4407397,16.8010146-11.9390379,7.7801146-.6006211,14.580077,2.5726351,19.2728133,9.5174105,8.9008296,13.1723283,10.3043216,32.0426638,1.6485767,46.1094912Z"/>
  <path fill="#000" d="M865.5932312,993.8581383c15.4971832,22.9845313,7.4985633,54.2733585-11.450507,57.4003089-7.6092866,1.2556743-14.6497318-1.3678587-19.6047578-7.9351391-10.6100707-14.0623498-11.4547021-35.0977826-1.2634218-49.6004998,3.8169904-5.4317741,10.1285631-8.4774669,15.5967168-8.6619339,6.4239019-.2167089,12.7952618,2.9733962,16.7219698,8.7972639Z"/>
  <path fill="#f6cb47" d="M589.5207049,973.303458l-28.8473904-30.1993956-65.7022207-71.9833408c-3.3476171-3.6676486-4.7851804-9.2463122-3.913327-14.1931223.7191697-4.0804981,5.4596928-7.9269976,10.3691204-9.8574192l88.5023054-34.7997313,169.0811636-64.2052064-.1859307,39.9470438c-4.5390384,94.0465126-21.0057158,186.5748462-48.2522652,276.509103-1.535439,5.0681119-4.7338242,8.8358184-8.5271951,10.5468696-3.4171797,1.5413652-10.7709409,1.0347648-14.2790756-2.5094412l-98.2451847-99.2553597Z"/>
  <path fill="#f6cb47" d="M1106.7312632,821.9433088c-37.9774282-57.0746377-94.2481147-85.2309658-161.9987046-93.4094974l14.8092351-19.5721424c6.3263684-8.3610385,15.918956-11.8813577,27.1372161-9.0219978,40.1101254,10.2234467,79.3233789,21.9104549,118.7569644,34.6925265,12.1169933,4.4540863,19.6108223,15.3715345,16.3991203,27.9864268l-15.1038312,59.3246843Z"/>
  <path fill="#fff" d="M1267.2258503,999.3085831c-13.6029147-1.6825953-22.1539868-11.3556463-22.0260221-24.5288829.1125642-11.587841,2.78149-23.6456102,5.9008262-34.189093l51.2426864-6.8748975c.927286-.1244079,4.3902235-.3068781,4.7899759.5355983l2.1585338,4.5491005-4.5648395,59.3252831c-12.1722343,1.662578-24.7292232,2.7627001-37.5011608,1.1828915Z"/>
</svg>
